:FULLY-SPECIFIED
:FORCE-ALL-JOINTS-BE-3DOF
:DEGREES
2141
root -2.59021 15.1975 -0.295392 904.228 7.85526 186.097
lfemur -52.5855 16.9073 -25.4915
ltibia 45.3321 0 0
lfoot 0.863782 19.68 0
ltoes 9.49743 0 0
rfemur -11.7358 -1.18727 19.7962
rtibia 51.072 0 0
rfoot 2.86326 19.5202 0
rtoes -27.5135 0 0
lowerback 8.62722 0.484604 -0.15712
upperback -1.72385 0.963378 3.45899
thorax -6.72647 0.600947 3.58493
lowerneck -4.98527 0.267895 -4.47374
upperneck 4.84759 0.538061 2.76217
head 2.3938 0.270931 1.68703
lclavicle 4.58447e-15 -1.63003e-14 0
lhumerus 52.8711 4.39869 108.097
lradius 12.7915 0 0
lwrist -54.2338 0 0
lhand -33.3155 402.969 0
lfingers 7.12502 0 0
lthumb -6.51882 -287.151 0
rclavicle 4.58447e-15 -1.63003e-14 0
rhumerus -63.5242 18.2114 -94.2456
rradius 108.739 0 0
rwrist -70.9359 0 0
rhand -15.2272 -393.046 0
rfingers 7.12502 0 0
rthumb 10.9456 297.259 0
2142
root -2.57552 15.1969 -0.514601 903.462 6.84501 185.14
lfemur -51.5387 16.4266 -25.9847
ltibia 46.6454 0 0
lfoot -0.254994 20.1711 0
ltoes 8.60182 0 0
rfemur -12.063 -1.28104 19.0716
rtibia 51.6012 0 0
rfoot 2.5934 18.7705 0
rtoes -26.1368 0 0
lowerback 9.68038 0.158282 -1.03962
upperback -1.44707 0.403408 3.31028
thorax -7.00309 0.350963 4.01636
lowerneck -5.07839 0.378048 -4.43408
upperneck 4.69031 0.703183 2.45032
head 2.35071 0.345446 1.58229
lclavicle -1.13804e-14 -4.96962e-15 0
lhumerus 52.6343 3.64921 106.163
lradius 13.5185 0 0
lwrist -50.3411 0 0
lhand -33.0661 401.083 0
lfingers 7.12502 0 0
lthumb -6.27806 -289.031 0
rclavicle -1.13804e-14 -4.96962e-15 0
rhumerus -63.3324 17.9985 -93.8436
rradius 109.188 0 0
rwrist -70.0202 0 0
rhand -15.3269 -393.139 0
rfingers 7.12502 0 0
rthumb 10.8495 297.162 0
2143
root -2.5618 15.2055 -0.734941 902.871 6.12727 184.092
lfemur -50.4614 15.9319 -26.4922
ltibia 47.9808 0 0
lfoot -1.35214 20.6527 0
ltoes 7.50128 0 0
rfemur -12.3469 -1.3624 18.4429
rtibia 52.3144 0 0
rfoot 2.23483 17.7745 0
rtoes -24.6914 0 0
lowerback 10.4867 -0.0204328 -1.93176
upperback -1.20673 0.0137355 3.05488
thorax -7.17732 0.182604 4.32251
lowerneck -5.29888 0.402811 -4.38228
upperneck 4.77636 0.75439 2.22752
head 2.41728 0.365493 1.50544
lclavicle 1.36292e-14 -2.00773e-14 0
lhumerus 52.259 2.19995 103.314
lradius 14.3467 0 0
lwrist -46.2747 0 0
lhand -32.7055 400.089 0
lfingers 7.12502 0 0
lthumb -5.92989 -290.014 0
rclavicle 1.36292e-14 -2.00773e-14 0
rhumerus -62.9357 17.5814 -93.5162
rradius 109.652 0 0
rwrist -70.5012 0 0
rhand -15.3814 -393.275 0
rfingers 7.12502 0 0
rthumb 10.7969 297.023 0
2144
root -2.54845 15.2214 -0.950157 902.199 5.44656 182.846
lfemur -49.3689 15.4303 -27.0069
ltibia 49.3163 0 0
lfoot -2.41323 21.1186 0
ltoes 6.21858 0 0
rfemur -12.5802 -1.42929 17.9261
rtibia 53.1955 0 0
rfoot 1.79863 16.5628 0
rtoes -23.1968 0 0
lowerback 11.4115 -0.173002 -2.99469
upperback -0.942153 -0.386769 2.69827
thorax -7.38235 0.0158423 4.62873
lowerneck -5.57479 0.405493 -4.24975
upperneck 4.90092 0.770187 2.03858
head 2.5086 0.369952 1.42522
lclavicle -7.29291e-15 2.78299e-15 0
lhumerus 51.9893 0.702665 100.339
lradius 15.1322 0 0
lwrist -43.0377 0 0
lhand -32.3946 399.296 0
lfingers 7.12502 0 0
lthumb -5.62969 -290.799 0
rclavicle -7.29291e-15 2.78299e-15 0
rhumerus -62.2482 17.1982 -93.302
rradius 109.926 0 0
rwrist -71.6147 0 0
rhand -15.344 -393.692 0
rfingers 7.12502 0 0
rthumb 10.833 296.607 0
2145
root -2.53406 15.2447 -1.16728 901.622 5.15312 181.468
lfemur -48.2765 14.9286 -27.5215
ltibia 50.6296 0 0
lfoot -3.42386 21.5622 0
ltoes 4.77649 0 0
rfemur -12.7558 -1.47962 17.5371
rtibia 54.2286 0 0
rfoot 1.29588 15.1663 0
rtoes -21.6728 0 0
lowerback 12.1855 -0.163685 -4.23482
upperback -0.698813 -0.613041 2.27675
thorax -7.53285 -0.0580448 4.93846
lowerneck -5.70761 0.387382 -4.14144
upperneck 4.89197 0.747213 1.95215
head 2.53061 0.35805 1.37822
lclavicle -7.15625e-15 -3.24019e-14 0
lhumerus 51.8149 -0.586181 97.7527
lradius 15.8238 0 0
lwrist -40.8855 0 0
lhand -31.6253 399.213 0
lfingers 7.12502 0 0
lthumb -4.88695 -290.864 0
rclavicle -7.15625e-15 -3.24019e-14 0
rhumerus -61.4641 16.8581 -93.2332
rradius 109.963 0 0
rwrist -72.226 0 0
rhand -15.3106 -393.891 0
rfingers 7.12502 0 0
rthumb 10.8652 296.41 0
2146
root -2.51848 15.2728 -1.38476 901.273 5.0669 180.231
lfemur -47.1992 14.4339 -28.029
ltibia 51.8986 0 0
lfoot -4.36959 21.9774 0
ltoes 3.19778 0 0
rfemur -12.8665 -1.51134 17.292
rtibia 55.3977 0 0
rfoot 0.737689 13.6158 0
rtoes -20.1389 0 0
lowerback 12.7101 -0.0840755 -5.37104
upperback -0.533446 -0.730194 1.87668
thorax -7.63357 -0.0793267 5.18848
lowerneck -5.73517 0.372407 -4.03184
upperneck 4.84086 0.717201 1.97288
head 2.51941 0.345972 1.36411
lclavicle -1.07965e-14 -6.16232e-15 0
lhumerus 51.6534 -1.81078 95.3498
lradius 16.4854 0 0
lwrist -39.0389 0 0
lhand -31.3124 400.153 0
lfingers 7.12502 0 0
lthumb -4.58477 -289.916 0
rclavicle -1.07965e-14 -6.16232e-15 0
rhumerus -60.5752 16.625 -93.3039
rradius 109.703 0 0
rwrist -72.0489 0 0
rhand -15.2296 -394.123 0
rfingers 7.12502 0 0
rthumb 10.9433 296.182 0
2147
root -2.50787 15.3031 -1.60675 901.05 4.97905 179.234
lfemur -46.1524 13.9532 -28.5222
ltibia 53.1012 0 0
lfoot -5.23601 22.3577 0
ltoes 1.50522 0 0
rfemur -12.905 -1.52237 17.2068
rtibia 56.6867 0 0
rfoot 0.135137 11.942 0
rtoes -18.6149 0 0
lowerback 12.9915 -0.0204804 -6.21636
upperback -0.386847 -0.808454 1.55518
thorax -7.6205 -0.0929503 5.34329
lowerneck -5.79981 0.323432 -3.96344
upperneck 4.90185 0.647767 1.98464
head 2.55406 0.312815 1.35453
lclavicle -1.54804e-14 1.35174e-14 0
lhumerus 51.4838 -2.80675 93.4762
lradius 17.1493 0 0
lwrist -37.4395 0 0
lhand -31.0281 401.152 0
lfingers 7.12502 0 0
lthumb -4.31028 -288.912 0
rclavicle -1.54804e-14 1.35174e-14 0
rhumerus -59.5371 16.5058 -93.4129
rradius 109.158 0 0
rwrist -71.2783 0 0
rhand -15.0876 -394.34 0
rfingers 7.12502 0 0
rthumb 11.0802 295.972 0
2148
root -2.49826 15.3313 -1.83111 901.041 4.88675 178.698
lfemur -45.1512 13.4935 -28.9939
ltibia 54.2153 0 0
lfoot -6.0087 22.6969 0
ltoes -0.278414 0 0
rfemur -13.0066 -1.52915 17.1664
rtibia 58.0797 0 0
rfoot -0.500686 10.1758 0
rtoes -17.1203 0 0
lowerback 13.0368 -0.00295482 -6.6145
upperback -0.262434 -0.855016 1.36457
thorax -7.50332 -0.109654 5.37214
lowerneck -5.88459 0.292831 -3.87495
upperneck 4.93366 0.601561 1.99611
head 2.58185 0.291783 1.34201
lclavicle 1.00262e-14 1.19271e-14 0
lhumerus 51.4008 -3.68046 91.7972
lradius 17.8005 0 0
lwrist -35.5369 0 0
lhand -30.8775 402.059 0
lfingers 7.12502 0 0
lthumb -4.16487 -288.001 0
rclavicle 1.00262e-14 1.19271e-14 0
rhumerus -58.3113 16.4984 -93.4753
rradius 108.456 0 0
rwrist -70.6009 0 0
rhand -14.927 -394.493 0
rfingers 7.12502 0 0
rthumb 11.2352 295.828 0
2149
root -2.48944 15.3522 -2.05452 901.09 4.76083 178.511
lfemur -44.2108 13.0616 -29.4369
ltibia 55.2187 0 0
lfoot -6.67324 22.9887 0
ltoes -2.13036 0 0
rfemur -13.3021 -1.54889 17.0489
rtibia 59.5607 0 0
rfoot -1.15869 8.348 0
rtoes -15.6749 0 0
lowerback 13.0825 0.00218009 -6.63578
upperback -0.233963 -0.859123 1.26789
thorax -7.49881 -0.112906 5.28098
lowerneck -5.77856 0.267634 -3.94955
upperneck 4.97756 0.556741 2.21939
head 2.57938 0.27477 1.42596
lclavicle -1.36664e-15 -3.77691e-15 0
lhumerus 51.1404 -4.31533 90.776
lradius 18.4243 0 0
lwrist -33.67 0 0
lhand -30.7004 402.419 0
lfingers 7.12502 0 0
lthumb -3.99379 -287.638 0
rclavicle -1.36664e-15 -3.77691e-15 0
rhumerus -57.1248 16.5326 -93.4975
rradius 107.739 0 0
rwrist -70.6463 0 0
rhand -14.8081 -394.844 0
rfingers 7.12502 0 0
rthumb 11.3498 295.483 0
2150
root -2.47858 15.3741 -2.28198 901.187 4.58947 178.323
lfemur -43.3465 12.6647 -29.8441
ltibia 56.0893 0 0
lfoot -7.2152 23.2266 0
ltoes -4.02784 0 0
rfemur -13.7778 -1.58065 16.8598
rtibia 61.1137 0 0
rfoot -1.82778 6.4894 0
rtoes -14.2982 0 0
lowerback 12.9764 -0.000602172 -6.70292
upperback -0.181777 -0.867822 1.19285
thorax -7.38131 -0.121519 5.23639
lowerneck -5.80621 0.185454 -3.94372
upperneck 5.0931 0.442389 2.30462
head 2.62772 0.22044 1.45001
lclavicle -1.71824e-14 -2.5842e-15 0
lhumerus 50.9956 -4.74872 90.1505
lradius 18.9483 0 0
lwrist -31.6403 0 0
lhand -30.566 402.479 0
lfingers 7.12502 0 0
lthumb -3.86401 -287.576 0
rclavicle -1.71824e-14 -2.5842e-15 0
rhumerus -55.8027 16.6228 -93.3969
rradius 107.024 0 0
rwrist -71.2454 0 0
rhand -14.741 -395.15 0
rfingers 7.12502 0 0
rthumb 11.4145 295.181 0
2151
root -2.46651 15.3934 -2.51026 901.214 4.3207 178.161
lfemur -42.5734 12.3097 -30.2083
ltibia 56.805 0 0
lfoot -7.62017 23.4044 0
ltoes -5.9481 0 0
rfemur -14.4197 -1.62351 16.6045
rtibia 62.7227 0 0
rfoot -2.49687 4.6308 0
rtoes -13.0099 0 0
lowerback 12.9335 -0.0244142 -6.79044
upperback -0.144424 -0.909896 1.1494
thorax -7.31028 -0.142719 5.24555
lowerneck -5.80344 0.0636928 -3.8764
upperneck 5.25257 0.276967 2.26718
head 2.68619 0.137967 1.42096
lclavicle 1.14798e-14 -1.76918e-14 0
lhumerus 50.8062 -5.01819 89.8744
lradius 19.4103 0 0
lwrist -29.4888 0 0
lhand -30.4329 402.217 0
lfingers 7.12502 0 0
lthumb -3.73549 -287.836 0
rclavicle 1.14798e-14 -1.76918e-14 0
rhumerus -54.4478 16.7925 -93.2571
rradius 106.473 0 0
rwrist -72.5926 0 0
rhand -14.7521 -395.499 0
rfingers 7.12502 0 0
rthumb 11.4039 294.831 0
2152
root -2.45077 15.4107 -2.7393 901.118 3.90614 177.889
lfemur -41.9068 12.0036 -30.5224
ltibia 57.3436 0 0
lfoot -7.87373 23.5157 0
ltoes -7.86836 0 0
rfemur -15.214 -1.67655 16.2887
rtibia 64.3717 0 0
rfoot -3.15487 2.803 0
rtoes -11.8296 0 0
lowerback 12.9767 -0.0493287 -7.03412
upperback -0.0940747 -0.980868 1.10654
thorax -7.26768 -0.17062 5.35153
lowerneck -5.86687 -0.0226879 -4.08577
upperneck 5.52705 0.166454 2.51715
head 2.79758 0.086743 1.5398
lclavicle 3.72721e-16 -7.95139e-16 0
lhumerus 50.5906 -5.15344 90.0392
lradius 19.7834 0 0
lwrist -27.516 0 0
lhand -30.4341 401.77 0
lfingers 7.12502 0 0
lthumb -3.73664 -288.283 0
rclavicle 3.72721e-16 -7.95139e-16 0
rhumerus -53.0494 17.053 -93.0393
rradius 106.025 0 0
rwrist -74.2529 0 0
rhand -14.6346 -395.697 0
rfingers 7.12502 0 0
rthumb 11.5172 294.639 0
2153
root -2.42944 15.4184 -2.9657 900.977 3.3358 177.642
lfemur -41.3618 11.7534 -30.7791
ltibia 57.683 0 0
lfoot -7.96145 23.5542 0
ltoes -9.76584 0 0
rfemur -16.1468 -1.73884 15.9178
rtibia 66.0446 0 0
rfoot -3.7907 1.03682 0
rtoes -10.777 0 0
lowerback 13.1235 -0.106015 -7.32097
upperback -0.0538178 -1.10677 1.08551
thorax -7.28481 -0.220143 5.51876
lowerneck -5.95871 -0.161817 -4.08506
upperneck 5.81126 -0.0138208 2.49964
head 2.9181 -0.00345687 1.53036
lclavicle -4.4975e-15 -9.93923e-16 0
lhumerus 50.3615 -5.28777 90.2668
lradius 20.1343 0 0
lwrist -25.6526 0 0
lhand -30.44 401.246 0
lfingers 7.12502 0 0
lthumb -3.74241 -288.808 0
rclavicle -4.4975e-15 -9.93923e-16 0
rhumerus -51.5922 17.3331 -92.7702
rradius 105.894 0 0
rwrist -76.207 0 0
rhand -14.4983 -395.975 0
rfingers 7.12502 0 0
rthumb 11.6486 294.369 0
